<svg width="32" height="32" version="1.1" viewBox="0 0 32 32" xmlns="http://www.w3.org/2000/svg">
 <circle cx="16" cy="16" r="14" fill="#7f7f7f" stroke="#333" stroke-width="2.1087"/>
 <g fill="#fff" stroke="#0076ff" stroke-width="1.91px" transform="scale(0.8) translate(8, 8)">
  <rect x="1.5" y="1.5" width="21" height="21" rx="1.91" />
  <path d="M12,4.36h0a4.77,4.77,0,0,1,4.77,4.77v0a0,0,0,0,1,0,0H7.23a0,0,0,0,1,0,0v0A4.77,4.77,0,0,1,12,4.36Z" />
  <line x1="12" y1="6.27" x2="12" y2="9.14" />
  <path d="M8,19.64H8a2.09,2.09,0,0,1-2-1.69l-.58-2.88a2,2,0,0,1,0-.41V14.1A2.1,2.1,0,0,1,7.42,12H8a2.1,2.1,0,0,1,2.1,2.1v3.44A2.1,2.1,0,0,1,8,19.64Z" />
  <path d="M16,19.64h0a2.09,2.09,0,0,0,2-1.69l.58-2.88a2,2,0,0,0,0-.41V14.1a2.1,2.1,0,0,0-2.1-2.1H16a2.1,2.1,0,0,0-2.1,2.1v3.44A2.1,2.1,0,0,0,16,19.64Z" />
 </g>
</svg>
