<svg width="32" height="32" version="1.1" viewBox="0 0 32 32" xmlns="http://www.w3.org/2000/svg">
 <circle cx="16" cy="16" r="14" fill="#7f7f7f" stroke="#333" stroke-width="2.1087"/>
 <g fill="#fff" stroke="#0076ff" stroke-width="8" transform="translate(3,3) scale(0.05)">
  <path d="M361.469,314.825H150.531c-5.523,0-10-4.477-10-10v-45.201c0-5.563-4.526-10.089-10.089-10.089h-12.556 c-5.523,0-10-4.477-10-10V98.073c0-16.591,13.498-30.089,30.089-30.089h236.049c16.591,0,30.089,13.498,30.089,30.089v141.462 c0,5.523-4.477,10-10,10h-12.556c-5.563,0-10.089,4.526-10.089,10.089v45.201C371.469,310.348,366.992,314.825,361.469,314.825z M160.531,294.825h190.938v-35.201c0-16.591,13.498-30.089,30.089-30.089h2.556V98.073c0-5.563-4.526-10.089-10.089-10.089 H137.976c-5.563,0-10.089,4.526-10.089,10.089v131.462h2.556c16.591,0,30.089,13.498,30.089,30.089V294.825z" />
  <path d="M426.759,444.016H85.241c-5.523,0-10-4.477-10-10V259.625c0-16.591,13.498-30.089,30.089-30.089h25.111 c16.591,0,30.089,13.498,30.089,30.089v35.201h190.938v-35.201c0-16.591,13.498-30.089,30.089-30.089h25.112 c16.591,0,30.089,13.498,30.089,30.089v174.392C436.759,439.539,432.282,444.016,426.759,444.016z M95.241,424.016h321.518 V259.625c0-5.563-4.526-10.089-10.089-10.089h-25.112c-5.563,0-10.089,4.526-10.089,10.089v45.201c0,5.523-4.477,10-10,10H150.531 c-5.523,0-10-4.477-10-10v-45.201c0-5.563-4.526-10.089-10.089-10.089h-25.111c-5.563,0-10.089,4.526-10.089,10.089V424.016z" />
  <path d="M185.966,144.904h-0.558c-5.523,0-10-4.477-10-10s4.477-10,10-10h0.558c5.523,0,10,4.477,10,10 S191.489,144.904,185.966,144.904z"  />
  <path d="M328.266,144.904h-0.558c-5.523,0-10-4.477-10-10s4.477-10,10-10h0.558c5.523,0,10,4.477,10,10 S333.789,144.904,328.266,144.904z"  />
  <path d="M185.966,208.521h-0.558c-5.523,0-10-4.477-10-10s4.477-10,10-10h0.558c5.523,0,10,4.477,10,10 S191.489,208.521,185.966,208.521z"  />
  <path d="M328.266,208.521h-0.558c-5.523,0-10-4.477-10-10s4.477-10,10-10h0.558c5.523,0,10,4.477,10,10 S333.789,208.521,328.266,208.521z"  />
  <path d="M394.114,98.073v141.462h-12.556c-11.099,0-20.089,8.99-20.089,20.089v45.201H150.531v-45.201 c0-11.099-8.99-20.089-20.089-20.089h-12.556V98.073c0-11.099,8.99-20.089,20.089-20.089h236.049 C385.124,77.984,394.114,86.974,394.114,98.073z" />
  <path d="M361.469,314.825H150.531c-5.523,0-10-4.477-10-10v-45.201c0-5.563-4.526-10.089-10.089-10.089h-12.556 c-5.523,0-10-4.477-10-10V98.073c0-16.591,13.498-30.089,30.089-30.089h236.049c16.591,0,30.089,13.498,30.089,30.089v141.462 c0,5.523-4.477,10-10,10h-12.556c-5.563,0-10.089,4.526-10.089,10.089v45.201C371.469,310.348,366.992,314.825,361.469,314.825z M160.531,294.825h190.938v-35.201c0-16.591,13.498-30.089,30.089-30.089h2.556V98.073c0-5.563-4.526-10.089-10.089-10.089 H137.976c-5.563,0-10.089,4.526-10.089,10.089v131.462h2.556c16.591,0,30.089,13.498,30.089,30.089V294.825z" fill="#0076ff" />
  <path d="M426.759,259.625v174.392H85.241V259.625c0-11.099,8.99-20.089,20.089-20.089h25.111 c11.099,0,20.089,8.99,20.089,20.089v45.201h210.938v-45.201c0-11.099,8.99-20.089,20.089-20.089h25.112 C417.769,239.535,426.759,248.525,426.759,259.625z" />
  <path d="M426.759,444.016H85.241c-5.523,0-10-4.477-10-10V259.625c0-16.591,13.498-30.089,30.089-30.089h25.111 c16.591,0,30.089,13.498,30.089,30.089v35.201h190.938v-35.201c0-16.591,13.498-30.089,30.089-30.089h25.112 c16.591,0,30.089,13.498,30.089,30.089v174.392C436.759,439.539,432.282,444.016,426.759,444.016z M95.241,424.016h321.518 V259.625c0-5.563-4.526-10.089-10.089-10.089h-25.112c-5.563,0-10.089,4.526-10.089,10.089v45.201c0,5.523-4.477,10-10,10H150.531 c-5.523,0-10-4.477-10-10v-45.201c0-5.563-4.526-10.089-10.089-10.089h-25.111c-5.563,0-10.089,4.526-10.089,10.089V424.016z" fill="#0076ff" />
  <path d="M185.966,144.904h-0.558c-5.523,0-10-4.477-10-10s4.477-10,10-10h0.558c5.523,0,10,4.477,10,10 S191.489,144.904,185.966,144.904z" />
  <path d="M328.266,144.904h-0.558c-5.523,0-10-4.477-10-10s4.477-10,10-10h0.558c5.523,0,10,4.477,10,10 S333.789,144.904,328.266,144.904z" />
  <path d="M185.966,208.521h-0.558c-5.523,0-10-4.477-10-10s4.477-10,10-10h0.558c5.523,0,10,4.477,10,10 S191.489,208.521,185.966,208.521z" />
  <path d="M328.266,208.521h-0.558c-5.523,0-10-4.477-10-10s4.477-10,10-10h0.558c5.523,0,10,4.477,10,10 S333.789,208.521,328.266,208.521z" />
 </g>
</svg>
